<svg xmlns="http://www.w3.org/2000/svg" viewBox="0 0 620 131" role="img" aria-label="KeylorForge logo"><path d="M 120 4 L 69 5 L 24 75 L 37 76 L 4 125 L 84 58 L 67 56 Z" transform="translate(4 14.41) scale(0.78)" fill="#FFC107"/><path d="M 33 4 L 7 4 L 7 97 L 21 75 L 33 52 Z" transform="translate(4 14.41) scale(0.78)" fill="#FFC107"/><path d="M 54 99 L 54 101 L 58 105 L 58 106 L 67 115 L 67 116 L 76 126 L 110 126 L 110 125 L 74 84 L 72 84 L 66 90 Z" transform="translate(4 14.41) scale(0.78)" fill="#FFC107"/><path d="M135 0H440V426L638 644L1061 0H1422L849 845L1406 1490H1033L668 1062C569 942 500 848 435 744L440 1083V1490H135Z" transform="translate(125.500 85.000) scale(0.030273 -0.030273)" fill="#FFFFFF"/><path d="M135 0H1134V253H440V628H1080V877H440V1237H1132V1490H135Z" transform="translate(170.092 85.000) scale(0.030273 -0.030273)" fill="#FFFFFF"/><path d="M601 0H905V560L1448 1490H1092L848 1026C813 959 784 897 755 818C725 896 696 958 658 1026L406 1490H49L601 560Z" transform="translate(207.752 85.000) scale(0.030273 -0.030273)" fill="#FFFFFF"/><path d="M135 0H1083V253H440V1490H135Z" transform="translate(253.070 85.000) scale(0.030273 -0.030273)" fill="#FFFFFF"/><path d="M789 -20C1184 -20 1484 259 1484 744C1484 1231 1184 1510 789 1510C394 1510 94 1231 94 744C94 260 394 -20 789 -20ZM789 251C558 251 404 425 404 744C404 1064 558 1239 789 1239C1020 1239 1174 1065 1174 744C1174 425 1020 251 789 251Z" transform="translate(288.127 85.000) scale(0.030273 -0.030273)" fill="#FFFFFF"/><path d="M135 0H440V532H680L964 0H1302L985 581C1155 654 1249 801 1249 1005C1249 1298 1055 1490 716 1490H135ZM440 779V1238H659C846 1238 934 1155 934 1005C934 856 846 779 660 779Z" transform="translate(335.897 85.000) scale(0.030273 -0.030273)" fill="#FFFFFF"/><path d="M42 0H347L442 572H1051L1092 820H483L552 1237H1227L1269 1490H289Z" transform="translate(385.615 85.000) scale(0.030273 -0.030273)" fill="#00D1C1"/><path d="M710 -20C1207 -20 1527 413 1527 901C1527 1288 1283 1510 931 1510C433 1510 113 1076 113 589C113 202 356 -20 710 -20ZM723 251C535 251 420 368 420 590C420 895 590 1239 919 1239C1106 1239 1220 1123 1220 901C1220 594 1052 251 723 251Z" transform="translate(422.003 85.000) scale(0.030273 -0.030273)" fill="#00D1C1"/><path d="M42 0H347L435 532H675L871 0H1209L988 581C1171 654 1289 802 1322 1005C1371 1297 1211 1490 870 1490H289ZM476 779 552 1238H771C954 1238 1033 1159 1008 1005C983 856 883 779 696 779Z" transform="translate(469.804 85.000) scale(0.030273 -0.030273)" fill="#00D1C1"/><path d="M716 -20C1083 -20 1380 208 1445 598L1477 794H857L819 562H1142C1103 376 947 251 730 251C536 251 420 371 420 594C420 906 601 1239 922 1239C1080 1239 1170 1152 1188 1010H1498C1506 1313 1260 1510 930 1510C436 1510 113 1074 113 587C113 210 344 -20 716 -20Z" transform="translate(510.521 85.000) scale(0.030273 -0.030273)" fill="#00D1C1"/><path d="M42 0H1041L1083 253H389L451 629H1090L1132 877H493L552 1237H1244L1286 1490H289Z" transform="translate(557.051 85.000) scale(0.030273 -0.030273)" fill="#00D1C1"/></svg>